<svg width="378" height="381" viewBox="0 0 378 381" fill="none" xmlns="http://www.w3.org/2000/svg">
<g clip-path="url(#clip0)">
<path d="M131.298 185.782C129.342 193.491 128.058 199.104 126.346 205.21C123.046 216.62 119.561 228.338 116.077 239.933C103.424 282.058 90.8325 324.12 78.1795 366.43L73.2895 362.853L73.534 362.668L73.5951 362.606C73.6562 362.544 73.7174 362.483 73.7174 362.421L73.7785 362.298L73.9619 361.989L74.3897 361.434L75.979 359.09C77.0793 357.549 78.1184 356.007 79.2187 354.403C81.358 351.319 83.4974 348.174 85.698 345.09C106.97 314.314 128.486 283.414 150.919 252.638C160.882 238.946 170.296 226.92 179.403 215.88C191.812 200.892 194.44 201.633 184.721 217.668C180.87 224.082 175.797 231.854 170.723 239.07C154.464 262.383 137.96 285.758 121.517 309.072C108.498 327.451 95.6003 344.782 82.0304 362.483C81.4192 363.346 80.7468 364.148 80.1355 365.011C79.7688 365.443 79.4631 365.875 79.0964 366.368C78.9741 366.553 78.7908 366.738 78.6685 366.923L78.424 367.17C78.3629 367.232 78.2406 367.293 78.1795 367.417C77.8739 367.725 77.3238 368.033 77.2015 368.157L68.2161 374.879L71.9447 364.271C84.8422 327.821 97.3118 289.644 109.292 251.528C112.96 239.81 116.566 228.091 120.173 216.435C123.412 205.456 126.774 195.835 131.298 185.782Z" fill="#F1A92B"/>
<path d="M189.856 5.99722C189.245 8.89598 188.878 11.0546 188.267 13.3366C187.105 17.5922 185.883 22.0329 184.599 26.3502C179.281 44.8529 174.085 63.3556 168.645 81.92C164.733 95.3653 160.699 108.872 156.176 122.379C154.159 128.362 152.08 133.728 149.88 138.6C146.885 145.261 145.356 145.138 146.64 138.23C147.19 135.454 147.985 132.062 148.902 128.917C151.958 118.74 155.075 108.502 158.254 98.264C160.76 90.1845 163.45 82.5984 166.384 74.7656C171.763 60.5802 176.714 45.5313 181.359 30.4825C182.704 26.1035 184.049 21.7245 185.332 17.3455C186.555 13.2133 187.9 9.63609 189.856 5.99722Z" fill="#F1A92B"/>
<path d="M190.712 141.869C182.826 142.362 177.142 142.917 170.785 143.102C162.838 143.349 154.77 143.534 146.579 143.719L146.823 143.534C146.823 143.596 146.762 143.657 146.762 143.719L146.64 144.212L146.334 143.781C146.273 143.719 146.273 143.657 146.212 143.596L146.457 143.719C142.728 143.781 138.877 143.904 135.087 143.966C109.415 144.521 83.803 145.076 58.1303 145.569C51.7122 145.693 45.294 145.816 38.8758 145.939L34.0469 146.063H32.8244H32.2131H31.8464L30.8684 146.124L27.4453 146.309L24.8169 146.494L23.7778 146.556H23.5333H23.4722C23.5333 146.556 23.5333 146.618 23.5944 146.618L23.8389 146.679L24.7558 146.926C27.1397 147.605 29.0957 148.098 30.5627 148.468L31.2962 148.653L31.663 148.715H31.7241L31.8464 148.776L32.0298 148.838L32.8855 149.085L39.6093 151.182C44.0715 152.6 48.5336 153.957 52.9958 155.376C61.9201 158.213 70.9056 161.05 79.8299 163.887C97.7397 169.623 115.711 175.482 133.743 181.588C149.757 187.015 164.061 192.381 177.264 197.809C184.293 200.707 188.572 202.866 190.1 204.161H189.611C190.223 204.161 190.528 204.284 190.712 204.47L190.589 204.655L190.65 204.531L190.589 204.655L190.65 204.531L190.589 204.655L190.65 204.531C190.834 204.778 190.589 205.148 190.039 205.58H189.611C187.839 205.703 183.682 205.025 177.203 203.483C169.929 201.694 161.005 199.227 152.63 196.575C125.552 188.002 98.3509 179.306 71.2112 170.548C60.5142 167.094 50.0618 163.579 39.6704 160.001C33.9858 158.028 31.3574 157.041 19.499 152.97C14.7924 151.305 10.0857 149.702 5.31792 148.036H4.89004L4.64554 147.975C4.58441 147.975 4.52329 147.913 4.52329 147.913L3.97316 147.605L3.42303 147.296C3.23965 147.173 3.30078 147.173 3.23965 147.111C3.1174 146.864 2.93402 146.679 2.81177 146.433C2.50615 146.001 2.13939 145.508 1.83376 145.076C1.52814 144.644 1.16138 144.212 0.733506 143.842L0.122251 143.226L0 142.979C0 142.979 0.183376 142.917 0.244502 142.917L0.366753 142.856L0.855757 142.671C2.20052 142.177 3.6064 141.684 5.13454 141.252C5.86805 141.005 6.66268 140.82 7.39618 140.635L8.00744 140.45L8.31307 140.389C8.31307 140.389 8.55757 140.389 8.67982 140.389H9.1077L12.4085 140.45C16.6873 140.512 20.966 140.574 25.306 140.635C28.729 140.697 32.152 140.697 35.6362 140.759C38.2034 140.82 40.8318 140.82 43.3991 140.882C48.5948 140.944 53.7904 141.005 58.9861 141.067C79.8299 141.252 100.857 141.19 121.823 141.005C130.014 140.944 138.205 140.82 146.396 140.759H147.74L148.596 141.93L148.718 142.115L143.951 142.917L144.012 142.732L144.562 140.82H146.579C150.491 140.759 154.342 140.697 158.193 140.635C169.684 140.45 179.831 140.697 190.712 141.869Z" fill="#F1A92B"/>
<path d="M376.472 142.547C373.538 142.856 371.459 143.164 369.137 143.287C364.797 143.534 360.335 143.657 355.872 143.781C336.985 144.397 318.097 145.138 299.148 145.631C285.395 146.001 271.58 146.371 257.583 146.186C251.348 146.124 245.724 145.754 240.529 145.138C233.377 144.336 233.071 142.794 239.917 141.93C242.668 141.56 246.091 141.314 249.331 141.252C259.783 141.005 270.297 140.882 280.81 140.759C289.062 140.635 297.009 140.882 305.261 141.314C320.175 142.115 335.701 142.239 351.166 141.992C355.689 141.93 360.151 141.869 364.613 141.745C368.709 141.622 372.499 141.807 376.472 142.547Z" fill="#F1A92B"/>
<path d="M304.588 364.271C304.955 364.703 305.322 365.073 305.627 365.381L308.745 368.65L306.972 364.703C306.055 362.606 305.261 360.941 304.588 359.152C302.999 354.958 301.471 350.641 299.943 346.385C293.402 328.129 286.801 309.935 280.321 291.556C275.615 278.234 270.969 264.85 266.752 251.158C264.857 245.052 263.451 239.501 262.351 234.136C261.923 231.977 261.739 230.435 261.8 229.51L262.289 230.003C261.067 229.078 261.25 228.523 262.778 228.523H262.901L263.267 229.016C263.818 229.695 264.429 230.867 265.223 232.532C266.446 235.122 267.73 238.329 268.83 241.475C272.314 251.59 275.798 261.828 279.221 272.004C281.911 280.022 284.172 287.855 286.373 295.996C290.346 310.798 295.114 325.971 300.126 341.02C301.593 345.398 303.121 349.777 304.588 354.095C305.872 357.734 306.789 361.002 307.4 364.58L308.684 372.104L305.322 365.628C305.016 365.196 304.772 364.703 304.588 364.271Z" fill="#F1A92B"/>
<path d="M227.387 255.722C230.198 253.008 232.155 250.973 234.538 248.938C238.939 245.237 243.646 241.537 248.231 237.836C267.852 222.17 287.29 206.443 307.094 190.839C321.398 179.553 335.884 168.266 351.044 157.473C357.767 152.662 364.124 148.776 370.298 145.508C378.733 141.005 380.567 142.794 374.088 149.393C371.521 152.045 368.098 155.067 364.736 157.658C353.794 166.169 342.669 174.619 331.606 183.006C322.865 189.606 314.124 195.527 304.955 201.386C288.268 212.056 271.519 224.021 255.199 236.418C250.431 240.056 245.724 243.695 241.018 247.334C236.556 250.85 232.399 253.563 227.387 255.722Z" fill="#F1A92B"/>
<path d="M377.878 141.869C377.266 141.93 376.716 141.992 376.288 142.054C376.044 142.177 375.799 142.3 375.555 142.362C375.372 142.485 375.188 142.547 374.944 142.671C374.577 142.856 374.21 143.041 373.843 143.164C373.171 143.472 372.499 143.842 371.826 144.151C370.543 144.767 369.259 145.323 367.975 145.878C362.352 148.16 356.423 150.318 350.616 152.539C325.86 161.852 301.165 171.226 276.287 180.354C258.255 187.015 240.04 193.553 221.396 199.474C213.083 202.064 205.443 203.976 198.169 205.333C194.746 205.95 192.362 206.135 191.078 205.826L191.812 204.84C191.812 204.901 191.751 204.901 191.751 204.901L191.567 204.285C191.689 205.518 191.2 205.888 190.1 205.395L189.917 204.901L189.856 204.84V204.778L190.528 203.976C191.2 203.113 192.973 201.941 195.724 200.522C199.208 198.734 203.548 196.822 207.827 195.342C221.58 190.407 235.455 185.535 249.331 180.724C260.272 176.962 270.908 173.817 282.033 170.918C302.265 165.614 322.865 159.015 343.342 151.922C349.271 149.825 355.2 147.728 361.068 145.631C363.635 144.706 366.081 143.904 368.526 143.287C369.748 142.979 370.971 142.67 372.193 142.424C372.804 142.3 373.416 142.177 374.088 142.054L375.005 141.93L375.249 141.869L375.555 141.807L376.227 141.684C376.533 141.745 376.9 141.745 377.205 141.807C377.389 141.807 377.633 141.869 377.878 141.869Z" fill="#F1A92B"/>
<path d="M189.917 206.505C191.017 207.183 191.995 207.615 192.729 208.293C194.134 209.589 195.418 211.007 196.702 212.364C202.264 218.285 207.888 224.082 213.328 230.127C217.24 234.506 221.152 238.946 224.453 243.942C225.92 246.162 226.837 248.444 227.326 250.85C227.998 254.118 226.042 255.722 223.169 254.242C222.008 253.625 220.785 252.7 219.929 251.651C216.995 248.259 214.184 244.805 211.433 241.29C209.232 238.515 207.582 235.554 206.115 232.285C203.425 226.364 199.758 220.875 195.601 215.756C194.379 214.276 193.156 212.796 191.934 211.377C190.711 210.082 189.978 208.602 189.917 206.505Z" fill="#F1A92B"/>
<path d="M76.4067 365.628C78.6073 363.654 80.0743 362.174 81.908 360.632C85.2699 357.857 88.8763 355.082 92.3605 352.306C107.336 340.526 122.19 328.746 137.288 317.028C148.229 308.516 159.232 300.067 170.723 291.864C175.797 288.225 180.565 285.203 185.21 282.551C191.445 278.974 192.667 280.022 187.594 284.771C185.577 286.683 182.948 288.904 180.381 290.939C172.007 297.353 163.572 303.706 155.136 310.058C148.474 315.054 141.872 319.618 135.026 324.12C122.495 332.385 109.781 341.513 97.3728 350.826C93.7664 353.54 90.16 356.315 86.6147 359.029C83.1917 361.743 80.0743 363.839 76.4067 365.628Z" fill="#F1A92B"/>
<path d="M307.461 363.963C304.711 360.941 302.571 358.905 300.493 356.377C296.642 351.689 292.791 346.755 289.001 341.883C272.742 321.16 256.421 300.499 240.223 279.591C228.487 264.418 216.751 249.123 205.565 233.149C200.553 226.056 196.519 219.333 193.034 212.796C191.384 209.712 190.528 207.43 190.406 206.196L190.895 206.567C190.039 205.58 190.223 204.963 191.506 204.716L191.934 205.025C192.973 205.395 194.624 206.69 196.763 208.91C199.453 211.686 202.631 215.263 205.321 218.84C214.123 230.435 222.925 242.153 231.666 253.872C238.573 263.123 244.746 272.313 250.859 282.058C261.984 299.697 274.515 317.336 287.351 334.605C291.08 339.663 294.869 344.597 298.659 349.592C302.327 354.341 305.2 358.72 307.461 363.963Z" fill="#F1A92B"/>
<path d="M189.122 204.408C188.817 205.703 188.694 206.752 188.267 207.677C187.472 209.404 186.555 211.131 185.638 212.796C181.787 220.012 177.997 227.228 173.963 234.321C171.029 239.501 168.034 244.62 164.305 249.308C162.655 251.405 160.76 253.008 158.682 254.242C155.809 255.907 153.67 254.55 154.22 251.281C154.403 249.986 154.953 248.568 155.626 247.334C157.948 243.449 160.332 239.686 162.777 235.924C164.733 232.964 166.995 230.435 169.623 227.968C174.391 223.527 178.425 218.285 182.032 212.672C183.071 211.069 184.049 209.404 185.027 207.738C186.005 206.196 187.105 205.086 189.122 204.408Z" fill="#F1A92B"/>
<path d="M154.158 255.845C157.581 257.696 160.149 258.929 162.777 260.594C167.667 263.678 172.618 267.009 177.508 270.339C198.413 284.34 219.318 298.217 240.162 312.402C255.26 322.702 270.419 333.125 285.273 344.35C291.874 349.346 297.559 354.218 302.571 359.152C305.138 361.619 306.544 363.531 306.972 364.703L305.566 365.751C305.872 364.826 306.361 364.641 307.156 365.258L308.072 365.936L305.994 366.06C304.955 366.121 302.938 365.443 300.126 364.025C296.825 362.359 292.913 360.016 289.368 357.549C277.938 349.654 266.507 341.575 255.138 333.495C246.152 327.142 237.9 320.543 229.526 313.512C214.306 300.745 197.741 288.348 180.993 276.507C176.102 273.053 171.212 269.661 166.322 266.269C161.555 263.123 157.704 259.978 154.158 255.845Z" fill="#F1A92B"/>
<path d="M3.17847 144.336C5.74574 145.816 7.64063 146.803 9.59664 148.16C13.2642 150.565 16.9928 153.155 20.7215 155.684C36.4919 166.477 52.3234 177.209 68.0937 188.125C79.5242 196.02 91.0158 204.038 102.324 212.549C107.336 216.311 111.737 220.012 115.649 223.589C120.967 228.523 120.356 229.942 114.243 226.549C111.798 225.193 108.864 223.342 106.175 221.492C97.4951 215.448 88.8764 209.28 80.1966 203.113C73.4116 198.24 67.0546 193.306 60.5753 188.064C48.8392 178.504 36.2474 169.129 23.5333 160.063C19.8046 157.411 16.1371 154.821 12.4084 152.23C8.98539 149.702 5.99024 147.358 3.17847 144.336Z" fill="#F1A92B"/>
<path d="M250.003 185.288C248.353 181.773 247.008 179.244 245.847 176.345C243.707 170.98 241.69 165.306 239.612 159.755C237.656 154.451 235.7 149.146 233.744 143.842L234.905 144.706H234.783L232.46 144.829L233.744 142.794L233.805 142.671L233.622 143.781C226.898 125.525 220.113 107.33 213.511 88.951C207.276 71.6818 201.103 54.2893 195.663 36.465C193.218 28.5088 191.506 21.2311 190.345 14.2618C188.694 4.82538 190.956 3.53019 195.174 11.7947C196.824 15.0635 198.658 19.2575 200.064 23.3281C204.709 36.465 209.232 49.7253 213.695 62.9855C217.24 73.4087 220.113 83.6469 222.802 94.2551C226.837 110.229 231.727 126.45 237.045 142.609L237.411 143.719L236.739 144.706L236.617 144.829L234.722 141.129H234.844H236.494L237.045 142.732C238.145 146.063 239.245 149.332 240.345 152.662C242.301 158.336 244.257 164.01 246.275 169.623C248.231 174.989 249.514 179.799 250.003 185.288Z" fill="#F1A92B"/>
<path d="M189.183 6.3056C189.672 10.3762 190.223 13.3366 190.406 16.6054C190.773 22.7113 191.017 29.0022 191.262 35.2315C192.301 61.752 193.462 88.2109 194.318 114.793C194.929 134.098 195.479 153.464 195.235 173.077C195.113 181.835 194.501 189.667 193.523 197.007C192.179 206.998 189.672 207.492 188.205 197.87C187.594 194.046 187.166 189.236 187.044 184.733C186.677 170.054 186.433 155.314 186.188 140.635C186.005 129.04 186.433 117.877 187.105 106.405C188.389 85.4972 188.572 63.7257 188.267 42.0158C188.144 35.7249 188.022 29.3723 187.839 23.1431C187.716 17.1605 187.961 11.9181 189.183 6.3056Z" fill="#F1A92B"/>
</g>
<defs>
<clipPath id="clip0">
<rect width="378" height="369.006" fill="white" transform="translate(0 5.99722)"/>
</clipPath>
</defs>
</svg>
